<?xml version="1.0" standalone="no"?>
<!DOCTYPE svg PUBLIC "-//W3C//DTD SVG 20010904//EN"
 "http://www.w3.org/TR/2001/REC-SVG-20010904/DTD/svg10.dtd">
<svg version="1.0" xmlns="http://www.w3.org/2000/svg"
 width="50.000000pt" height="50.000000pt" viewBox="0 0 50.000000 50.000000"
 preserveAspectRatio="xMidYMid meet">
<metadata>
Created by potrace 1.15, written by Peter Selinger 2001-2017
</metadata>
<g transform="translate(0.000000,50.000000) scale(0.100000,-0.100000)"
fill="#000000" stroke="none">
<path d="M50 471 c0 -33 11 -51 31 -51 15 0 19 -7 19 -34 0 -48 16 -87 47
-112 l26 -22 -32 -28 c-25 -23 -33 -39 -38 -81 -4 -34 -10 -53 -19 -53 -16 0
-34 -31 -34 -59 0 -21 5 -21 195 -21 l195 0 0 35 c0 29 -4 36 -25 41 -23 6
-25 11 -25 56 0 45 -4 54 -33 80 l-33 30 33 33 c29 29 33 40 33 83 0 45 3 51
23 54 17 2 23 11 25 36 l3 32 -195 0 c-187 0 -196 -1 -196 -19z m310 -94 c0
-48 -9 -63 -57 -96 -18 -12 -33 -26 -33 -30 0 -4 20 -21 45 -39 42 -29 45 -35
45 -77 0 -52 -12 -58 -30 -15 -7 16 -28 39 -46 51 -34 20 -35 20 -67 2 -17
-10 -39 -33 -47 -51 -20 -43 -40 -41 -40 4 0 36 35 83 85 113 20 11 20 12 -5
29 -61 43 -72 58 -77 105 l-6 47 117 0 116 0 0 -43z"/>
</g>
</svg>
